{
  "asset": {
    "version": "2.0"
  },
  "accessors": [
    {
      "type": "VEC3",
      "componentType": 5126,
      "count": 1728,
      "max": [12.592718124389648, 78.90718841552734, 66.62486267089844],
      "min": [-12.592718124389648, -0.12174476683139801, -88.09500122070312],
      "bufferView": 0,
      "byteOffset": 0
    },
    {
      "type": "VEC2",
      "componentType": 5126,
      "count": 1728,
      "bufferView": 0,
      "byteOffset": 12
    },
    {
      "type": "VEC4",
      "componentType": 5123,
      "count": 1728,
      "bufferView": 0,
      "byteOffset": 20
    },
    {
      "type": "VEC4",
      "componentType": 5126,
      "count": 1728,
      "bufferView": 0,
      "byteOffset": 28
    },
    {
      "type": "MAT4",
      "componentType": 5126,
      "count": 24,
      "bufferView": 1,
      "byteOffset": 0
    },
    {
      "type": "SCALAR",
      "componentType": 5126,
      "count": 83,
      "max": [3.4166667461395264],
      "min": [0],
      "bufferView": 2,
      "byteOffset": 0
    },
    {
      "type": "VEC4",
      "componentType": 5126,
      "count": 83,
      "bufferView": 2,
      "byteOffset": 332
    },
    {
      "type": "VEC4",
      "componentType": 5126,
      "count": 83,
      "bufferView": 2,
      "byteOffset": 1660
    },
    {
      "type": "VEC4",
      "componentType": 5126,
      "count": 83,
      "bufferView": 2,
      "byteOffset": 2988
    },
    {
      "type": "VEC4",
      "componentType": 5126,
      "count": 83,
      "bufferView": 2,
      "byteOffset": 4316
    },
    {
      "type": "VEC4",
      "componentType": 5126,
      "count": 83,
      "bufferView": 2,
      "byteOffset": 5644
    },
    {
      "type": "VEC4",
      "componentType": 5126,
      "count": 83,
      "bufferView": 2,
      "byteOffset": 6972
    },
    {
      "type": "VEC4",
      "componentType": 5126,
      "count": 83,
      "bufferView": 2,
      "byteOffset": 8300
    },
    {
      "type": "VEC4",
      "componentType": 5126,
      "count": 83,
      "bufferView": 2,
      "byteOffset": 9628
    },
    {
      "type": "VEC4",
      "componentType": 5126,
      "count": 83,
      "bufferView": 2,
      "byteOffset": 10956
    },
    {
      "type": "VEC4",
      "componentType": 5126,
      "count": 83,
      "bufferView": 2,
      "byteOffset": 12284
    },
    {
      "type": "VEC4",
      "componentType": 5126,
      "count": 83,
      "bufferView": 2,
      "byteOffset": 13612
    },
    {
      "type": "VEC4",
      "componentType": 5126,
      "count": 83,
      "bufferView": 2,
      "byteOffset": 14940
    },
    {
      "type": "VEC4",
      "componentType": 5126,
      "count": 83,
      "bufferView": 2,
      "byteOffset": 16268
    },
    {
      "type": "VEC4",
      "componentType": 5126,
      "count": 83,
      "bufferView": 2,
      "byteOffset": 17596
    },
    {
      "type": "VEC4",
      "componentType": 5126,
      "count": 83,
      "bufferView": 2,
      "byteOffset": 18924
    },
    {
      "type": "VEC4",
      "componentType": 5126,
      "count": 83,
      "bufferView": 2,
      "byteOffset": 20252
    },
    {
      "type": "VEC4",
      "componentType": 5126,
      "count": 83,
      "bufferView": 2,
      "byteOffset": 21580
    },
    {
      "type": "VEC4",
      "componentType": 5126,
      "count": 83,
      "bufferView": 2,
      "byteOffset": 22908
    },
    {
      "type": "VEC4",
      "componentType": 5126,
      "count": 83,
      "bufferView": 2,
      "byteOffset": 24236
    },
    {
      "type": "VEC3",
      "componentType": 5126,
      "count": 83,
      "bufferView": 2,
      "byteOffset": 25564
    },
    {
      "type": "VEC4",
      "componentType": 5126,
      "count": 83,
      "bufferView": 2,
      "byteOffset": 26560
    },
    {
      "type": "SCALAR",
      "componentType": 5126,
      "count": 18,
      "max": [0.7083333134651184],
      "min": [0],
      "bufferView": 2,
      "byteOffset": 27888
    },
    {
      "type": "VEC4",
      "componentType": 5126,
      "count": 18,
      "bufferView": 2,
      "byteOffset": 27960
    },
    {
      "type": "VEC4",
      "componentType": 5126,
      "count": 18,
      "bufferView": 2,
      "byteOffset": 28248
    },
    {
      "type": "VEC4",
      "componentType": 5126,
      "count": 18,
      "bufferView": 2,
      "byteOffset": 28536
    },
    {
      "type": "VEC4",
      "componentType": 5126,
      "count": 18,
      "bufferView": 2,
      "byteOffset": 28824
    },
    {
      "type": "VEC4",
      "componentType": 5126,
      "count": 18,
      "bufferView": 2,
      "byteOffset": 29112
    },
    {
      "type": "VEC4",
      "componentType": 5126,
      "count": 18,
      "bufferView": 2,
      "byteOffset": 29400
    },
    {
      "type": "VEC4",
      "componentType": 5126,
      "count": 18,
      "bufferView": 2,
      "byteOffset": 29688
    },
    {
      "type": "VEC4",
      "componentType": 5126,
      "count": 18,
      "bufferView": 2,
      "byteOffset": 29976
    },
    {
      "type": "VEC4",
      "componentType": 5126,
      "count": 18,
      "bufferView": 2,
      "byteOffset": 30264
    },
    {
      "type": "VEC4",
      "componentType": 5126,
      "count": 18,
      "bufferView": 2,
      "byteOffset": 30552
    },
    {
      "type": "VEC4",
      "componentType": 5126,
      "count": 18,
      "bufferView": 2,
      "byteOffset": 30840
    },
    {
      "type": "VEC4",
      "componentType": 5126,
      "count": 18,
      "bufferView": 2,
      "byteOffset": 31128
    },
    {
      "type": "VEC4",
      "componentType": 5126,
      "count": 18,
      "bufferView": 2,
      "byteOffset": 31416
    },
    {
      "type": "VEC4",
      "componentType": 5126,
      "count": 18,
      "bufferView": 2,
      "byteOffset": 31704
    },
    {
      "type": "VEC4",
      "componentType": 5126,
      "count": 18,
      "bufferView": 2,
      "byteOffset": 31992
    },
    {
      "type": "VEC4",
      "componentType": 5126,
      "count": 18,
      "bufferView": 2,
      "byteOffset": 32280
    },
    {
      "type": "VEC4",
      "componentType": 5126,
      "count": 18,
      "bufferView": 2,
      "byteOffset": 32568
    },
    {
      "type": "VEC4",
      "componentType": 5126,
      "count": 18,
      "bufferView": 2,
      "byteOffset": 32856
    },
    {
      "type": "VEC4",
      "componentType": 5126,
      "count": 18,
      "bufferView": 2,
      "byteOffset": 33144
    },
    {
      "type": "VEC3",
      "componentType": 5126,
      "count": 18,
      "bufferView": 2,
      "byteOffset": 33432
    },
    {
      "type": "VEC4",
      "componentType": 5126,
      "count": 18,
      "bufferView": 2,
      "byteOffset": 33648
    },
    {
      "type": "SCALAR",
      "componentType": 5126,
      "count": 25,
      "max": [1.1583333015441895],
      "min": [0],
      "bufferView": 2,
      "byteOffset": 33936
    },
    {
      "type": "VEC4",
      "componentType": 5126,
      "count": 25,
      "bufferView": 2,
      "byteOffset": 34036
    },
    {
      "type": "VEC4",
      "componentType": 5126,
      "count": 25,
      "bufferView": 2,
      "byteOffset": 34436
    },
    {
      "type": "VEC4",
      "componentType": 5126,
      "count": 25,
      "bufferView": 2,
      "byteOffset": 34836
    },
    {
      "type": "VEC4",
      "componentType": 5126,
      "count": 25,
      "bufferView": 2,
      "byteOffset": 35236
    },
    {
      "type": "VEC4",
      "componentType": 5126,
      "count": 25,
      "bufferView": 2,
      "byteOffset": 35636
    },
    {
      "type": "VEC4",
      "componentType": 5126,
      "count": 25,
      "bufferView": 2,
      "byteOffset": 36036
    },
    {
      "type": "VEC4",
      "componentType": 5126,
      "count": 25,
      "bufferView": 2,
      "byteOffset": 36436
    },
    {
      "type": "VEC4",
      "componentType": 5126,
      "count": 25,
      "bufferView": 2,
      "byteOffset": 36836
    },
    {
      "type": "VEC4",
      "componentType": 5126,
      "count": 25,
      "bufferView": 2,
      "byteOffset": 37236
    },
    {
      "type": "VEC4",
      "componentType": 5126,
      "count": 25,
      "bufferView": 2,
      "byteOffset": 37636
    },
    {
      "type": "VEC4",
      "componentType": 5126,
      "count": 25,
      "bufferView": 2,
      "byteOffset": 38036
    },
    {
      "type": "VEC4",
      "componentType": 5126,
      "count": 25,
      "bufferView": 2,
      "byteOffset": 38436
    },
    {
      "type": "VEC4",
      "componentType": 5126,
      "count": 25,
      "bufferView": 2,
      "byteOffset": 38836
    },
    {
      "type": "VEC4",
      "componentType": 5126,
      "count": 25,
      "bufferView": 2,
      "byteOffset": 39236
    },
    {
      "type": "VEC4",
      "componentType": 5126,
      "count": 25,
      "bufferView": 2,
      "byteOffset": 39636
    },
    {
      "type": "VEC4",
      "componentType": 5126,
      "count": 25,
      "bufferView": 2,
      "byteOffset": 40036
    },
    {
      "type": "VEC4",
      "componentType": 5126,
      "count": 25,
      "bufferView": 2,
      "byteOffset": 40436
    },
    {
      "type": "VEC4",
      "componentType": 5126,
      "count": 25,
      "bufferView": 2,
      "byteOffset": 40836
    },
    {
      "type": "VEC4",
      "componentType": 5126,
      "count": 25,
      "bufferView": 2,
      "byteOffset": 41236
    },
    {
      "type": "VEC3",
      "componentType": 5126,
      "count": 25,
      "bufferView": 2,
      "byteOffset": 41636
    },
    {
      "type": "VEC4",
      "componentType": 5126,
      "count": 25,
      "bufferView": 2,
      "byteOffset": 41936
    }
  ],
  "bufferViews": [
    {
      "buffer": 0,
      "byteOffset": 0,
      "byteLength": 76032,
      "byteStride": 44,
      "target": 34962
    },
    {
      "buffer": 0,
      "byteOffset": 76032,
      "byteLength": 1536
    },
    {
      "buffer": 0,
      "byteOffset": 77568,
      "byteLength": 42336
    }
  ],
  "samplers": [
    {
      "magFilter": 9729,
      "minFilter": 9987,
      "wrapS": 10497,
      "wrapT": 10497
    }
  ],
  "textures": [
    {
      "source": 0,
      "sampler": 0
    }
  ],
  "images": [
    {
      "mimeType": "image/png",
      "uri": "Texture.png"
    }
  ],
  "buffers": [
    {
      "uri": "Fox.bin",
      "byteLength": 119904
    }
  ],
  "materials": [
    {
      "name": "fox_material",
      "pbrMetallicRoughness": {
        "roughnessFactor": 0.58,
        "metallicFactor": 0,
        "baseColorTexture": {
          "index": 0
        }
      }
    }
  ],
  "meshes": [
    {
      "name": "fox1",
      "primitives": [
        {
          "attributes": {
            "POSITION": 0,
            "TEXCOORD_0": 1,
            "JOINTS_0": 2,
            "WEIGHTS_0": 3
          },
          "mode": 4,
          "material": 0
        }
      ]
    }
  ],
  "nodes": [
    {
      "name": "root",
      "children": [2]
    },
    {
      "name": "fox",
      "mesh": 0,
      "skin": 0
    },
    {
      "name": "_rootJoint",
      "children": [3]
    },
    {
      "name": "b_Root_00",
      "rotation": [-0.7071080924875391, 0, 0, 0.7071054698831242],
      "children": [4]
    },
    {
      "name": "b_Hip_01",
      "translation": [0, 26.748403549194336, 42.93817138671875],
      "rotation": [0.12769094176175547, -0.6954820192393762, -0.12769022650601444, 0.695481840425441],
      "children": [5, 15, 18, 22]
    },
    {
      "name": "b_Spine01_02",
      "translation": [12.850601196289062, 0, 0],
      "rotation": [0, 0, -0.5904157638238317, 0.8070992664030376],
      "children": [6]
    },
    {
      "name": "b_Spine02_03",
      "translation": [21.65575408935547, -0.000118255615234375, 0],
      "rotation": [0, 0, 0.017411952404281082, 0.9998484004655261],
      "children": [7, 9, 12]
    },
    {
      "name": "b_Neck_04",
      "translation": [25.64914321899414, 0, 0],
      "rotation": [0, 0, 0.30337914028264346, 0.9528699267168443],
      "children": [8]
    },
    {
      "name": "b_Head_05",
      "translation": [13.376960754394531, 0, 0],
      "rotation": [0, 0, -0.4002854151487349, 0.9163905206947555]
    },
    {
      "name": "b_RightUpperArm_06",
      "translation": [18.677913665771484, -4.297340393066406, 6.9675750732421875],
      "rotation": [0.0004673273262011562, -0.0004461484692255928, -0.7121792881110691, 0.7019973248825985],
      "children": [10]
    },
    {
      "name": "b_RightForeArm_07",
      "translation": [23.04512596130371, 0, 0],
      "rotation": [0, 0, 0.03712589977348744, 0.9993105961441663],
      "children": [11]
    },
    {
      "name": "b_RightHand_08",
      "translation": [19.350055694580078, -0.14598655700683594, 0],
      "rotation": [-0.012037406914797018, -0.00782221012465276, 0.4605623277185148, 0.8875112709988741]
    },
    {
      "name": "b_LeftUpperArm_09",
      "translation": [18.67791748046875, -4.297344207763672, -6.967987060546875],
      "rotation": [0.0004972619220940174, -0.0008821923166442875, -0.7120874929914663, 0.7020900061903927],
      "children": [13]
    },
    {
      "name": "b_LeftForeArm_010",
      "translation": [23.045124053955078, 0, 0],
      "rotation": [0, 0, 0.03712589977348744, 0.9993105961441663],
      "children": [14]
    },
    {
      "name": "b_LeftHand_011",
      "translation": [19.350051879882812, -0.14599037170410156, 0],
      "rotation": [0.01651791440721507, 0.014013739873997781, 0.46007557521271, 0.8876154790736099]
    },
    {
      "name": "b_Tail01_012",
      "translation": [4.2603759765625, 15.958770751953125, 0],
      "rotation": [0, 0, 0.9818928940656295, 0.1894369145214904],
      "children": [16]
    },
    {
      "name": "b_Tail02_013",
      "translation": [12.411918640136719, 0, 0],
      "rotation": [0, 0, -0.0696171663387466, 0.9975737818081244],
      "children": [17]
    },
    {
      "name": "b_Tail03_014",
      "translation": [24.24032211303711, 0, 0],
      "rotation": [0, 0, -0.05383274484207684, 0.9985499664927979]
    },
    {
      "name": "b_LeftLeg01_015",
      "translation": [4.813770294189453, 5.154018402099609, -6.968006134033203],
      "rotation": [0, -0.0001717522536559936, 0.9700158834020681, -0.2430414706359161],
      "children": [19]
    },
    {
      "name": "b_LeftLeg02_016",
      "translation": [18.944175720214844, 0, 0],
      "rotation": [0, 0, -0.36804378855511655, 0.9298084586117706],
      "children": [20]
    },
    {
      "name": "b_LeftFoot01_017",
      "translation": [17.942811965942383, 0, 0],
      "rotation": [0.0002484105929664666, 0, 0.4584841122585099, 0.888702569535333],
      "children": [21]
    },
    {
      "name": "b_LeftFoot02_018",
      "translation": [15.779938697814941, 0, 0],
      "rotation": [0, 0, 0.5472882949090243, 0.8369441571906533]
    },
    {
      "name": "b_RightLeg01_019",
      "translation": [4.813777923583984, 5.154026031494141, 6.967563629150391],
      "rotation": [0, 0, 0.9699585942054535, -0.24327006705918533],
      "children": [23]
    },
    {
      "name": "b_RightLeg02_020",
      "translation": [18.944183349609375, 0, 0],
      "rotation": [0, 0, -0.36804381432052885, 0.9298084484131106],
      "children": [24]
    },
    {
      "name": "b_RightFoot01_021",
      "translation": [17.94281005859375, 0, 0],
      "rotation": [-0.00015345455876803163, 0, 0.4579093746168346, 0.888998864504178],
      "children": [25]
    },
    {
      "name": "b_RightFoot02_022",
      "translation": [15.779935836791992, 0, 0],
      "rotation": [0, 0, 0.5472882949090243, 0.8369441571906533]
    }
  ],
  "skins": [
    {
      "inverseBindMatrices": 4,
      "skeleton": 2,
      "joints": [2, 3, 4, 5, 6, 7, 8, 9, 10, 11, 12, 13, 14, 15, 16, 17, 18, 19, 20, 21, 22, 23, 24, 25]
    }
  ],
  "animations": [
    {
      "name": "Survey",
      "samplers": [
        {
          "input": 5,
          "output": 6,
          "interpolation": "LINEAR"
        },
        {
          "input": 5,
          "output": 7,
          "interpolation": "LINEAR"
        },
        {
          "input": 5,
          "output": 8,
          "interpolation": "LINEAR"
        },
        {
          "input": 5,
          "output": 9,
          "interpolation": "LINEAR"
        },
        {
          "input": 5,
          "output": 10,
          "interpolation": "LINEAR"
        },
        {
          "input": 5,
          "output": 11,
          "interpolation": "LINEAR"
        },
        {
          "input": 5,
          "output": 12,
          "interpolation": "LINEAR"
        },
        {
          "input": 5,
          "output": 13,
          "interpolation": "LINEAR"
        },
        {
          "input": 5,
          "output": 14,
          "interpolation": "LINEAR"
        },
        {
          "input": 5,
          "output": 15,
          "interpolation": "LINEAR"
        },
        {
          "input": 5,
          "output": 16,
          "interpolation": "LINEAR"
        },
        {
          "input": 5,
          "output": 17,
          "interpolation": "LINEAR"
        },
        {
          "input": 5,
          "output": 18,
          "interpolation": "LINEAR"
        },
        {
          "input": 5,
          "output": 19,
          "interpolation": "LINEAR"
        },
        {
          "input": 5,
          "output": 20,
          "interpolation": "LINEAR"
        },
        {
          "input": 5,
          "output": 21,
          "interpolation": "LINEAR"
        },
        {
          "input": 5,
          "output": 22,
          "interpolation": "LINEAR"
        },
        {
          "input": 5,
          "output": 23,
          "interpolation": "LINEAR"
        },
        {
          "input": 5,
          "output": 24,
          "interpolation": "LINEAR"
        },
        {
          "input": 5,
          "output": 25,
          "interpolation": "LINEAR"
        },
        {
          "input": 5,
          "output": 26,
          "interpolation": "LINEAR"
        }
      ],
      "channels": [
        {
          "sampler": 0,
          "target": {
            "node": 8,
            "path": "rotation"
          }
        },
        {
          "sampler": 1,
          "target": {
            "node": 7,
            "path": "rotation"
          }
        },
        {
          "sampler": 2,
          "target": {
            "node": 11,
            "path": "rotation"
          }
        },
        {
          "sampler": 3,
          "target": {
            "node": 10,
            "path": "rotation"
          }
        },
        {
          "sampler": 4,
          "target": {
            "node": 9,
            "path": "rotation"
          }
        },
        {
          "sampler": 5,
          "target": {
            "node": 14,
            "path": "rotation"
          }
        },
        {
          "sampler": 6,
          "target": {
            "node": 13,
            "path": "rotation"
          }
        },
        {
          "sampler": 7,
          "target": {
            "node": 12,
            "path": "rotation"
          }
        },
        {
          "sampler": 8,
          "target": {
            "node": 6,
            "path": "rotation"
          }
        },
        {
          "sampler": 9,
          "target": {
            "node": 5,
            "path": "rotation"
          }
        },
        {
          "sampler": 10,
          "target": {
            "node": 17,
            "path": "rotation"
          }
        },
        {
          "sampler": 11,
          "target": {
            "node": 16,
            "path": "rotation"
          }
        },
        {
          "sampler": 12,
          "target": {
            "node": 15,
            "path": "rotation"
          }
        },
        {
          "sampler": 13,
          "target": {
            "node": 20,
            "path": "rotation"
          }
        },
        {
          "sampler": 14,
          "target": {
            "node": 19,
            "path": "rotation"
          }
        },
        {
          "sampler": 15,
          "target": {
            "node": 18,
            "path": "rotation"
          }
        },
        {
          "sampler": 16,
          "target": {
            "node": 24,
            "path": "rotation"
          }
        },
        {
          "sampler": 17,
          "target": {
            "node": 23,
            "path": "rotation"
          }
        },
        {
          "sampler": 18,
          "target": {
            "node": 22,
            "path": "rotation"
          }
        },
        {
          "sampler": 19,
          "target": {
            "node": 4,
            "path": "translation"
          }
        },
        {
          "sampler": 20,
          "target": {
            "node": 4,
            "path": "rotation"
          }
        }
      ]
    },
    {
      "name": "Walk",
      "samplers": [
        {
          "input": 27,
          "output": 28,
          "interpolation": "LINEAR"
        },
        {
          "input": 27,
          "output": 29,
          "interpolation": "LINEAR"
        },
        {
          "input": 27,
          "output": 30,
          "interpolation": "LINEAR"
        },
        {
          "input": 27,
          "output": 31,
          "interpolation": "LINEAR"
        },
        {
          "input": 27,
          "output": 32,
          "interpolation": "LINEAR"
        },
        {
          "input": 27,
          "output": 33,
          "interpolation": "LINEAR"
        },
        {
          "input": 27,
          "output": 34,
          "interpolation": "LINEAR"
        },
        {
          "input": 27,
          "output": 35,
          "interpolation": "LINEAR"
        },
        {
          "input": 27,
          "output": 36,
          "interpolation": "LINEAR"
        },
        {
          "input": 27,
          "output": 37,
          "interpolation": "LINEAR"
        },
        {
          "input": 27,
          "output": 38,
          "interpolation": "LINEAR"
        },
        {
          "input": 27,
          "output": 39,
          "interpolation": "LINEAR"
        },
        {
          "input": 27,
          "output": 40,
          "interpolation": "LINEAR"
        },
        {
          "input": 27,
          "output": 41,
          "interpolation": "LINEAR"
        },
        {
          "input": 27,
          "output": 42,
          "interpolation": "LINEAR"
        },
        {
          "input": 27,
          "output": 43,
          "interpolation": "LINEAR"
        },
        {
          "input": 27,
          "output": 44,
          "interpolation": "LINEAR"
        },
        {
          "input": 27,
          "output": 45,
          "interpolation": "LINEAR"
        },
        {
          "input": 27,
          "output": 46,
          "interpolation": "LINEAR"
        },
        {
          "input": 27,
          "output": 47,
          "interpolation": "LINEAR"
        },
        {
          "input": 27,
          "output": 48,
          "interpolation": "LINEAR"
        }
      ],
      "channels": [
        {
          "sampler": 0,
          "target": {
            "node": 8,
            "path": "rotation"
          }
        },
        {
          "sampler": 1,
          "target": {
            "node": 7,
            "path": "rotation"
          }
        },
        {
          "sampler": 2,
          "target": {
            "node": 11,
            "path": "rotation"
          }
        },
        {
          "sampler": 3,
          "target": {
            "node": 10,
            "path": "rotation"
          }
        },
        {
          "sampler": 4,
          "target": {
            "node": 9,
            "path": "rotation"
          }
        },
        {
          "sampler": 5,
          "target": {
            "node": 14,
            "path": "rotation"
          }
        },
        {
          "sampler": 6,
          "target": {
            "node": 13,
            "path": "rotation"
          }
        },
        {
          "sampler": 7,
          "target": {
            "node": 12,
            "path": "rotation"
          }
        },
        {
          "sampler": 8,
          "target": {
            "node": 6,
            "path": "rotation"
          }
        },
        {
          "sampler": 9,
          "target": {
            "node": 5,
            "path": "rotation"
          }
        },
        {
          "sampler": 10,
          "target": {
            "node": 17,
            "path": "rotation"
          }
        },
        {
          "sampler": 11,
          "target": {
            "node": 16,
            "path": "rotation"
          }
        },
        {
          "sampler": 12,
          "target": {
            "node": 15,
            "path": "rotation"
          }
        },
        {
          "sampler": 13,
          "target": {
            "node": 20,
            "path": "rotation"
          }
        },
        {
          "sampler": 14,
          "target": {
            "node": 19,
            "path": "rotation"
          }
        },
        {
          "sampler": 15,
          "target": {
            "node": 18,
            "path": "rotation"
          }
        },
        {
          "sampler": 16,
          "target": {
            "node": 24,
            "path": "rotation"
          }
        },
        {
          "sampler": 17,
          "target": {
            "node": 23,
            "path": "rotation"
          }
        },
        {
          "sampler": 18,
          "target": {
            "node": 22,
            "path": "rotation"
          }
        },
        {
          "sampler": 19,
          "target": {
            "node": 4,
            "path": "translation"
          }
        },
        {
          "sampler": 20,
          "target": {
            "node": 4,
            "path": "rotation"
          }
        }
      ]
    },
    {
      "name": "Run",
      "samplers": [
        {
          "input": 49,
          "output": 50,
          "interpolation": "LINEAR"
        },
        {
          "input": 49,
          "output": 51,
          "interpolation": "LINEAR"
        },
        {
          "input": 49,
          "output": 52,
          "interpolation": "LINEAR"
        },
        {
          "input": 49,
          "output": 53,
          "interpolation": "LINEAR"
        },
        {
          "input": 49,
          "output": 54,
          "interpolation": "LINEAR"
        },
        {
          "input": 49,
          "output": 55,
          "interpolation": "LINEAR"
        },
        {
          "input": 49,
          "output": 56,
          "interpolation": "LINEAR"
        },
        {
          "input": 49,
          "output": 57,
          "interpolation": "LINEAR"
        },
        {
          "input": 49,
          "output": 58,
          "interpolation": "LINEAR"
        },
        {
          "input": 49,
          "output": 59,
          "interpolation": "LINEAR"
        },
        {
          "input": 49,
          "output": 60,
          "interpolation": "LINEAR"
        },
        {
          "input": 49,
          "output": 61,
          "interpolation": "LINEAR"
        },
        {
          "input": 49,
          "output": 62,
          "interpolation": "LINEAR"
        },
        {
          "input": 49,
          "output": 63,
          "interpolation": "LINEAR"
        },
        {
          "input": 49,
          "output": 64,
          "interpolation": "LINEAR"
        },
        {
          "input": 49,
          "output": 65,
          "interpolation": "LINEAR"
        },
        {
          "input": 49,
          "output": 66,
          "interpolation": "LINEAR"
        },
        {
          "input": 49,
          "output": 67,
          "interpolation": "LINEAR"
        },
        {
          "input": 49,
          "output": 68,
          "interpolation": "LINEAR"
        },
        {
          "input": 49,
          "output": 69,
          "interpolation": "LINEAR"
        },
        {
          "input": 49,
          "output": 70,
          "interpolation": "LINEAR"
        }
      ],
      "channels": [
        {
          "sampler": 0,
          "target": {
            "node": 8,
            "path": "rotation"
          }
        },
        {
          "sampler": 1,
          "target": {
            "node": 7,
            "path": "rotation"
          }
        },
        {
          "sampler": 2,
          "target": {
            "node": 11,
            "path": "rotation"
          }
        },
        {
          "sampler": 3,
          "target": {
            "node": 10,
            "path": "rotation"
          }
        },
        {
          "sampler": 4,
          "target": {
            "node": 9,
            "path": "rotation"
          }
        },
        {
          "sampler": 5,
          "target": {
            "node": 14,
            "path": "rotation"
          }
        },
        {
          "sampler": 6,
          "target": {
            "node": 13,
            "path": "rotation"
          }
        },
        {
          "sampler": 7,
          "target": {
            "node": 12,
            "path": "rotation"
          }
        },
        {
          "sampler": 8,
          "target": {
            "node": 6,
            "path": "rotation"
          }
        },
        {
          "sampler": 9,
          "target": {
            "node": 5,
            "path": "rotation"
          }
        },
        {
          "sampler": 10,
          "target": {
            "node": 17,
            "path": "rotation"
          }
        },
        {
          "sampler": 11,
          "target": {
            "node": 16,
            "path": "rotation"
          }
        },
        {
          "sampler": 12,
          "target": {
            "node": 15,
            "path": "rotation"
          }
        },
        {
          "sampler": 13,
          "target": {
            "node": 20,
            "path": "rotation"
          }
        },
        {
          "sampler": 14,
          "target": {
            "node": 19,
            "path": "rotation"
          }
        },
        {
          "sampler": 15,
          "target": {
            "node": 18,
            "path": "rotation"
          }
        },
        {
          "sampler": 16,
          "target": {
            "node": 24,
            "path": "rotation"
          }
        },
        {
          "sampler": 17,
          "target": {
            "node": 23,
            "path": "rotation"
          }
        },
        {
          "sampler": 18,
          "target": {
            "node": 22,
            "path": "rotation"
          }
        },
        {
          "sampler": 19,
          "target": {
            "node": 4,
            "path": "translation"
          }
        },
        {
          "sampler": 20,
          "target": {
            "node": 4,
            "path": "rotation"
          }
        }
      ]
    }
  ],
  "scenes": [
    {
      "nodes": [0, 1]
    }
  ],
  "scene": 0
}
